# xmcd
#
# Track frame offsets:
#	150
#	14630
#	29775
#	44107
#	57872
#	71400
#	78705
#	92557
#	107100
#	121787
#	133925
#	145457
#	155160
#	168290
#
# Disc length: 2393 seconds
#
# Revision: 0
# Processed by: cddbd v1.4PL0 Copyright (c) Steve Scherf et al.
# Submitted via: dBpowerAMP V4.0
#
DISCID=d109570e
DTITLE=Various Artist - Grand Strand Gold
DYEAR=1900
DGENRE=Blues
TTITLE0=Catalinas - Summertime's Calling Me
TTITLE1=Chairmen of the Board - Carolina Girls
TTITLE2=Second Nature - Who's That Guy
TTITLE3=Embers - I Love Beach Music
TTITLE4=Fantastic Shakers - Myrtle Beach Days
TTITLE5=Maurice Williams and the Zodiacs - Stay
TTITLE6=Showmen - 39-21-46
TTITLE7=Tymes - Ms. Grace
TTITLE8=Drifters - Little Red Book
TTITLE9=Chairmen of the Board - Give me Just a Little More Time
TTITLE10=Georgia Prophets - California
TTITLE11=Tams - I've Been Hurt
TTITLE12=Freda Payne - Band of Gold
TTITLE13=Jimmy Liggins - Boogie Woogie King
EXTD=Carolina Beach Music Classics
EXTT0=
EXTT1=
EXTT2=
EXTT3=
EXTT4=
EXTT5=
EXTT6=
EXTT7=
EXTT8=
EXTT9=
EXTT10=
EXTT11=
EXTT12=
EXTT13=
PLAYORDER=
